<?xml version="1.0" standalone="no"?>
<!DOCTYPE svg PUBLIC "-//W3C//DTD SVG 20010904//EN"
 "http://www.w3.org/TR/2001/REC-SVG-20010904/DTD/svg10.dtd">
<svg version="1.0" xmlns="http://www.w3.org/2000/svg"
 width="70.000000pt" height="70.000000pt" viewBox="0 0 70.000000 70.000000"
 preserveAspectRatio="xMidYMid meet">
<metadata>
Created by potrace 1.14, written by Peter Selinger 2001-2017
</metadata>
<g transform="translate(0.000000,70.000000) scale(0.100000,-0.100000)"
fill="#000000" stroke="none">
<path d="M322 589 c-31 -28 -20 -39 39 -39 27 0 49 -3 49 -7 0 -5 -27 -7 -59
-7 -42 1 -61 -3 -65 -12 -6 -15 5 -18 77 -15 26 0 47 -2 47 -7 0 -4 -24 -8
-52 -7 -69 0 -109 -12 -101 -31 3 -8 -3 -21 -13 -29 -26 -19 -15 -25 50 -28
59 -3 81 8 71 35 -5 13 5 15 60 14 36 -1 70 1 77 5 20 12 1 37 -26 34 -14 -2
-29 1 -32 6 -3 6 6 9 22 7 34 -4 43 19 12 31 -17 7 -18 10 -6 10 13 1 17 7 14
24 -2 12 -9 21 -16 19 -7 -2 -17 3 -21 10 -7 10 -9 10 -9 -1 0 -11 -3 -11 -15
-1 -8 7 -15 8 -15 3 0 -5 -9 -9 -20 -10 -11 -1 -20 3 -20 9 0 6 -7 5 -17 -3
-11 -10 -14 -10 -9 -1 11 18 3 15 -22 -9z m-12 -139 c11 -8 9 -9 -12 -8 -16 1
-28 6 -28 10 0 11 22 10 40 -2z m40 0 c0 -5 -4 -10 -10 -10 -5 0 -10 5 -10 10
0 6 5 10 10 10 6 0 10 -4 10 -10z"/>
<path d="M402 441 c-21 -13 -3 -38 24 -35 13 1 24 -2 24 -8 0 -5 -9 -6 -20 -3
-11 3 -20 3 -21 -2 0 -4 -2 -16 -4 -25 -2 -14 3 -18 23 -18 25 0 24 -1 -11
-20 -39 -21 -75 -22 -98 -3 -8 6 -39 11 -70 11 -45 0 -58 -4 -68 -21 -16 -25
-4 -34 49 -31 22 1 40 -3 40 -8 0 -5 -24 -8 -54 -6 -55 4 -76 -9 -76 -46 0 -7
-7 -19 -15 -26 -18 -15 -11 -30 16 -30 10 0 19 -4 19 -9 0 -6 -10 -8 -21 -6
-28 6 -60 -12 -53 -28 4 -12 77 -16 138 -8 4 1 6 12 4 25 -4 19 1 27 21 36 24
11 24 13 8 24 -21 16 -22 23 -2 23 8 0 15 -5 15 -11 0 -6 5 -4 10 4 8 12 10
12 10 1 0 -10 3 -11 14 -2 11 9 16 9 21 0 6 -8 10 -7 16 2 5 8 9 9 9 4 0 -6 9
-11 20 -12 13 -1 18 2 14 10 -5 9 -4 9 6 0 9 -8 19 -9 32 -2 11 6 18 6 18 0 0
-5 -5 -11 -10 -13 -6 -2 -3 -12 7 -23 10 -11 18 -31 18 -45 0 -24 3 -25 60
-25 l60 0 -3 45 c-2 25 -11 50 -20 58 -10 7 -11 11 -4 7 8 -4 12 1 12 15 0 11
-7 23 -15 26 -10 4 -12 10 -6 18 10 12 -7 96 -22 107 -4 3 -6 16 -5 29 3 22
-1 24 -48 26 -27 1 -56 -1 -62 -5z m83 -49 c-3 -3 -11 0 -18 7 -9 10 -8 11 6
5 10 -3 15 -9 12 -12z m-170 -112 c3 -5 -1 -10 -9 -10 -8 0 -18 5 -21 10 -3 6
1 10 9 10 8 0 18 -4 21 -10z m55 -2 c0 -3 -9 -6 -20 -5 -11 1 -20 5 -20 9 0 3
9 6 20 5 11 -1 20 -5 20 -9z m93 2 c-7 -7 -82 -7 -78 0 2 4 22 6 44 6 21 -1
37 -3 34 -6z m-288 -60 c3 -5 -1 -10 -9 -10 -9 0 -16 5 -16 10 0 6 4 10 9 10
6 0 13 -4 16 -10z m55 -2 c0 -4 -9 -8 -20 -8 -11 0 -20 4 -20 9 0 6 9 9 20 8
11 -1 20 -5 20 -9z m-23 -53 c-5 -16 -37 -18 -37 -3 0 8 9 14 20 14 11 0 19
-5 17 -11z m337 7 c2 -4 -5 -9 -17 -9 -17 -2 -19 0 -7 7 18 12 18 12 24 2z"/>
<path d="M214 385 c-21 -25 -11 -32 50 -34 47 -1 66 2 76 14 7 8 10 18 7 21
-11 11 -124 10 -133 -1z"/>
</g>
</svg>
